<?xml version="1.0" encoding="utf-8"?>
<!-- Generator: Adobe Illustrator 27.2.0, SVG Export Plug-In . SVG Version: 6.00 Build 0)  -->
<svg version="1.1" id="Layer_1" xmlns="http://www.w3.org/2000/svg" xmlns:xlink="http://www.w3.org/1999/xlink" x="0px" y="0px"
	 viewBox="0 0 500 229" style="enable-background:new 0 0 500 229;" xml:space="preserve">
<style type="text/css">
	.st0{fill:#FFFFFF;}
</style>
<g>
	<path class="st0" d="M18,131H6.3c-0.9,0-1.6-0.7-1.6-1.6v-8.9c0-0.8,0.7-1.6,1.6-1.6h36.2c0.9,0,1.6,0.7,1.6,1.6v8.9
		c0,0.8-0.7,1.6-1.6,1.6H30.9v43.6c0,0.8-0.7,1.6-1.6,1.6h-9.8c-0.8,0-1.6-0.7-1.6-1.6V131z"/>
	<path class="st0" d="M76.2,118.2c16.3,0,29.4,13.1,29.4,29.5S92.5,177,76.2,177s-29.3-13-29.3-29.3S59.9,118.2,76.2,118.2z
		 M76.2,163.9c9,0,16.3-7.3,16.3-16.2c0-9-7.3-16.4-16.3-16.4c-8.9,0-16.2,7.4-16.2,16.4C60,156.5,67.3,163.9,76.2,163.9z"/>
	<path class="st0" d="M111.4,120.6c0-0.8,0.7-1.6,1.6-1.6h9.7c0.8,0,1.6,0.7,1.6,1.6v43.6h19.4c0.9,0,1.6,0.7,1.6,1.6v8.9
		c0,0.8-0.7,1.6-1.6,1.6H113c-0.9,0-1.6-0.7-1.6-1.6V120.6z"/>
	<path class="st0" d="M152.3,120.6c0-0.8,0.7-1.6,1.6-1.6h33.8c0.9,0,1.6,0.7,1.6,1.6v8.9c0,0.8-0.7,1.6-1.6,1.6H165v10.1h18.6
		c0.8,0,1.6,0.7,1.6,1.6v8.9c0,0.9-0.7,1.6-1.6,1.6H165v11h22.6c0.9,0,1.6,0.7,1.6,1.6v8.9c0,0.8-0.7,1.6-1.6,1.6h-33.8
		c-0.9,0-1.6-0.7-1.6-1.6V120.6z"/>
	<path class="st0" d="M197.4,120.6c0-0.8,0.7-1.6,1.5-1.6h19.9c15.8,0,28.6,12.8,28.6,28.5c0,15.8-12.9,28.6-28.6,28.6h-19.9
		c-0.8,0-1.5-0.7-1.5-1.6V120.6z M218,164.1c9.2,0,15.9-7.3,15.9-16.6c0-9.2-6.7-16.5-15.9-16.5h-7.8v33.1H218z"/>
	<path class="st0" d="M281.7,118.2c16.3,0,29.4,13.1,29.4,29.5S298,177,281.7,177c-16.3,0-29.3-13-29.3-29.3
		S265.4,118.2,281.7,118.2z M281.7,163.9c9,0,16.3-7.3,16.3-16.2c0-9-7.3-16.4-16.3-16.4c-8.9,0-16.2,7.4-16.2,16.4
		C265.4,156.5,272.8,163.9,281.7,163.9z"/>
	<path class="st0" d="M332.2,173.1l21.7-41.9V131h-17.8c-0.8,0-1.6-0.7-1.6-1.6v-8.9c0-0.8,0.7-1.6,1.6-1.6h34.7
		c0.8,0,1.5,0.7,1.5,1.6v1.1l-21,42.4v0.2h17.8c0.9,0,1.6,0.7,1.6,1.6v8.9c0,0.8-0.7,1.6-1.6,1.6h-35.4c-0.8,0-1.6-0.7-1.6-1.6
		V173.1z"/>
	<path class="st0" d="M401.9,118.2c16.3,0,29.4,13.1,29.4,29.5S418.3,177,401.9,177c-16.3,0-29.3-13-29.3-29.3
		S385.6,118.2,401.9,118.2z M401.9,163.9c9,0,16.3-7.3,16.3-16.2c0-9-7.3-16.4-16.3-16.4c-8.9,0-16.2,7.4-16.2,16.4
		C385.7,156.5,393.1,163.9,401.9,163.9z"/>
	<path class="st0" d="M465.5,118.2c16.3,0,29.4,13.1,29.4,29.5S481.8,177,465.5,177c-16.3,0-29.3-13-29.3-29.3
		S449.2,118.2,465.5,118.2z M465.5,163.9c9,0,16.3-7.3,16.3-16.2c0-9-7.3-16.4-16.3-16.4c-8.9,0-16.2,7.4-16.2,16.4
		C449.3,156.5,456.6,163.9,465.5,163.9z"/>
</g>
<g>
	<path class="st0" d="M240.2,83.3V82c0-1.1-0.9-2.1-2.1-2.1h-0.7c-1.1,0-2.1,0.9-2.1,2.1v4c-6.6,1.5-15.8-3.4-15.8-25.6
		c0-18.3,9.7-27.8,14.7-28.8v0.7c0,1.1,0.9,2.1,2.1,2.1h0.7c1.1,0,2.1-0.9,2.1-2.1v-2.1c0.6-0.2,0.6-0.2,1.6-0.6
		c1-0.4,4.2-3.4,2.1-7.8c-1.6-3.2-1.9-5.4-2.1-8.3c-0.7-7.5-15.3-8.2-17.5-1.2c-1.3,4-8.7,14.9-16.8,18.2c-3.2,1.3-7.8,1.7-9.2,2.3
		c-1.9,0.7-1.8,2.6-1.8,2.6c-4.6-1.3-11,1.3-8.2,9.8c-2.4-0.1-8.3,2.6-8.8,6.1c-0.4,3.6,1.2,10.4,9.8-0.3c2.6-3.1-2,13-10.2,8.6
		c-5.7-3.1-2.8-12.2,4.8-14.9c1.5-0.6,0.9-1.7-0.4-1.4c-2.8,0.7-7.2,3.9-11.2,8.9c-8.6,10.9-11.8,22.3-22.4,27
		c-6.9,3.1-12.2,9.2-10.4,19.4l74.6-0.2l25.3-0.5c9.9-1.8,10.7-10.8,8.6-14.4C245,80.2,241.9,81.4,240.2,83.3z M193,44.8
		c-1.5,0-2.7-1.2-2.7-2.7c0-1.5,1.2-2.7,2.7-2.7c1.5,0,2.7,1.2,2.7,2.7C195.8,43.6,194.5,44.8,193,44.8z"/>
	<path class="st0" d="M351,79.2c-10.6-4.8-13.8-16.1-22.4-27c-3.9-5-8.4-8.2-11.2-8.9c-1.3-0.3-2,0.8-0.4,1.4
		c7.6,2.8,10.4,11.8,4.8,14.9c-8.2,4.5-12.7-11.7-10.2-8.6c8.7,10.7,10.3,3.9,9.8,0.3c-0.4-3.5-6.4-6.2-8.8-6.1
		c2.8-8.4-3.6-11.1-8.2-9.8c0,0,0.1-1.9-1.8-2.6c-1.4-0.6-6-1-9.2-2.3c-8.1-3.3-15.5-14.3-16.8-18.2c-2.3-7.1-16.8-6.3-17.5,1.2
		c-0.3,2.9-0.5,5.1-2.1,8.3c-2.1,4.5,1.1,7.4,2.1,7.8c1,0.4,1,0.4,1.6,0.6v2.1c0,1.1,0.9,2.1,2.1,2.1h0.7c1.1,0,2.1-0.9,2.1-2.1
		v-0.7c4.9,0.9,14.7,10.5,14.7,28.8c0,22.3-9.2,27.2-15.8,25.6v-4c0-1.1-0.9-2.1-2.1-2.1h-0.7c-1.1,0-2.1,0.9-2.1,2.1v1.3
		c-1.7-1.9-4.8-3.1-6.9,0.3c-2.1,3.6-1.3,12.5,8.6,14.4l25.3,0.5l74.6,0.2C363.2,88.4,357.9,82.3,351,79.2z M306.8,44.8
		c-1.5,0-2.7-1.2-2.7-2.7c0-1.5,1.2-2.7,2.7-2.7c1.5,0,2.7,1.2,2.7,2.7C309.5,43.6,308.3,44.8,306.8,44.8z"/>
</g>
<g>
	<path class="st0" d="M130.4,204.9L130.4,204.9l-0.8-1c-1.6-1.6-2.7-3.3-2.7-5.6c0-3,2.5-6.3,7.4-6.3c4.4,0,7.4,2.9,7.4,6.4
		c0,4-4,6.4-4.8,7.1l4.5,4.5c0.6-1.3,0.8-1.9,1.2-3.4c0.4-1.6,1.5-1.9,2.6-1.6c1.1,0.3,1.8,1.4,1.1,4c-0.6,2.1-1.4,3.2-1.8,4
		c0,0,1.2,2.6,5,1.7c2.6-0.6,3.7,5.7-3.2,5c-2.4-0.3-4.5-3-4.5-3c-0.7,0.8-3.4,3.3-8.5,3.3c-5,0-8.2-3.4-8.2-7.3
		C125.1,207.6,129.7,205.3,130.4,204.9z M133.8,215.9c2.9,0,4.5-1.6,5-2.3l-5.8-6.2c-0.6,0.4-3.3,1.7-3.3,4.8
		C129.7,214.4,131.5,215.9,133.8,215.9z M137.5,198.5c0-1.5-1.3-2.9-3.3-2.9c-1.8,0-2.9,1.2-2.9,2.7c0,1.4,0.9,2.3,2,3.5l0.9,0.9
		C134.8,202.3,137.5,201,137.5,198.5z"/>
	<path class="st0" d="M156.9,218.7l12.2-26.3c0.1-0.2,0.3-0.4,0.7-0.4h0.4c0.4,0,0.5,0.2,0.7,0.4l12,26.3c0.2,0.5-0.1,1-0.7,1h-3.4
		c-0.6,0-0.9-0.2-1.1-0.8l-1.9-4.2H164l-1.9,4.2c-0.2,0.4-0.5,0.8-1.1,0.8h-3.4C157,219.7,156.7,219.2,156.9,218.7z M173.8,210.3
		l-3.9-8.6h-0.1l-3.8,8.6H173.8z"/>
	<path class="st0" d="M197.9,191.9c7.8,0,14.1,6.3,14.1,14.1c0,5.3-3.1,10-7.6,12.5c0,0,3.2,1.8,6.8,0.9c3.8-0.9,4.4,5.1-2,4.9
		c-4.8-0.1-9.5-4.4-9.5-4.4c-0.6,0.1-1.3,0.1-1.8,0.1c-7.8,0-14-6.2-14-14S190.1,191.9,197.9,191.9z M197.9,215c4.9,0,9-4,9-8.9
		c0-4.9-4.1-9-9-9c-4.9,0-8.9,4.1-8.9,9C188.9,211,192.9,215,197.9,215z"/>
	<path class="st0" d="M216.3,193.1c0-0.4,0.4-0.7,0.7-0.7h3.7c0.4,0,0.7,0.4,0.7,0.7v16c0,3.3,2.3,5.9,5.7,5.9s5.7-2.6,5.7-5.9v-16
		c0-0.4,0.3-0.7,0.7-0.7h3.7c0.4,0,0.7,0.4,0.7,0.7v16.3c0,5.9-4.7,10.7-10.9,10.7c-6.1,0-10.9-4.8-10.9-10.7V193.1z"/>
	<path class="st0" d="M240.4,218.7l12.2-26.3c0.1-0.2,0.3-0.4,0.7-0.4h0.4c0.4,0,0.5,0.2,0.7,0.4l12,26.3c0.2,0.5-0.1,1-0.7,1h-3.4
		c-0.6,0-0.9-0.2-1.1-0.8l-1.9-4.2h-11.7l-1.9,4.2c-0.2,0.4-0.5,0.8-1.1,0.8h-3.4C240.5,219.7,240.2,219.2,240.4,218.7z
		 M257.3,210.3l-3.9-8.6h-0.1l-3.8,8.6H257.3z"/>
	<path class="st0" d="M269.5,193.1c0-0.4,0.3-0.7,0.7-0.7h11.2c4.7,0,8.5,3.8,8.5,8.4c0,3.6-2.4,6.5-5.8,7.9l5.4,9.9
		c0.3,0.5,0,1.1-0.7,1.1h-4.1c-0.4,0-0.5-0.2-0.6-0.4l-5.2-10.4h-4.3v10c0,0.4-0.4,0.7-0.7,0.7h-3.6c-0.4,0-0.7-0.4-0.7-0.7V193.1z
		 M281,204.8c2.1,0,3.9-1.8,3.9-4c0-2.1-1.8-3.8-3.9-3.8h-6.4v7.8H281z"/>
	<path class="st0" d="M295.1,193.1c0-0.4,0.4-0.7,0.7-0.7h3.6c0.4,0,0.7,0.4,0.7,0.7v25.9c0,0.4-0.4,0.7-0.7,0.7h-3.6
		c-0.4,0-0.7-0.4-0.7-0.7V193.1z"/>
	<path class="st0" d="M306.6,193.1c0-0.4,0.4-0.7,0.7-0.7h3.7c0.4,0,0.7,0.4,0.7,0.7v16c0,3.3,2.3,5.9,5.7,5.9
		c3.4,0,5.7-2.6,5.7-5.9v-16c0-0.4,0.3-0.7,0.7-0.7h3.7c0.4,0,0.7,0.4,0.7,0.7v16.3c0,5.9-4.7,10.7-10.9,10.7
		c-6.1,0-10.9-4.8-10.9-10.7V193.1z"/>
	<path class="st0" d="M337.5,192.5c0-0.3,0.3-0.6,0.7-0.6h0.6c0.3,0,0.5,0.2,0.7,0.4l8.6,18.4c0.1,0,0.1,0,0.1,0l8.6-18.4
		c0.1-0.2,0.3-0.4,0.7-0.4h0.6c0.4,0,0.7,0.3,0.7,0.6l4.6,26.3c0.1,0.5-0.2,0.9-0.7,0.9h-3.6c-0.4,0-0.7-0.3-0.7-0.6l-2.3-14.8
		c0,0-0.1,0-0.1,0l-6.8,15.4c-0.1,0.2-0.3,0.4-0.7,0.4h-0.7c-0.4,0-0.5-0.2-0.7-0.4l-6.9-15.4c0,0-0.1,0-0.1,0l-2.3,14.8
		c0,0.3-0.4,0.6-0.7,0.6h-3.5c-0.5,0-0.8-0.4-0.7-0.9L337.5,192.5z"/>
</g>
</svg>
